<?xml version="1.0" encoding="UTF-8"?>
<svg xmlns="http://www.w3.org/2000/svg" width="207" height="72" viewBox="0 0 207 72" fill="none">
  <g clip-path="url(#clip0_546_1061)">
    <path d="M160.863 62.9843C160.863 65.8393 159.777 66.9036 158.038 66.9036C156.299 66.9036 155.213 65.8393 155.213 62.9843V52.9043H148.979V63.1722C148.979 68.7756 152.306 72 157.988 72C163.67 72 166.997 68.7756 166.997 63.1722V52.9043H160.87V62.9843H160.863Z" fill="#2B8081"></path>
    <path d="M134.313 52.8981L126.232 71.568H132.574L133.817 68.3123H140.842L142.085 71.568H148.533L140.447 52.8981H134.319H134.313ZM135.531 63.7795L137.326 59.0838L139.122 63.7795H135.531Z" fill="#2B8081"></path>
    <path d="M176.076 52.8981H169.842V71.5743H184.42V66.6908H176.076V52.8981Z" fill="#2B8081"></path>
    <path d="M99.8693 62.9843C99.8693 65.8393 98.7831 66.9036 97.044 66.9036C95.3049 66.9036 94.2188 65.8393 94.2188 62.9843V52.9043H87.9844V63.1722C87.9844 68.7756 91.3119 72 96.9938 72C102.676 72 106.003 68.7756 106.003 63.1722V52.9043H99.8756V62.9843H99.8693Z" fill="#2B8081"></path>
    <path d="M122.773 64.7186C121.687 66.1085 120.394 66.9037 118.73 66.9037C116.143 66.9037 114.398 65.088 114.398 62.2393C114.398 59.3906 116.143 57.5687 118.73 57.5687C120.394 57.5687 121.687 58.3701 122.773 59.7537L126.71 56.2038C124.889 53.8059 122.032 52.4724 118.416 52.4724C112.47 52.4724 108.113 56.4981 108.113 62.233C108.113 67.968 112.47 71.9937 118.416 71.9937C122.032 71.9937 124.889 70.6602 126.71 68.256L122.773 64.7061V64.7186Z" fill="#2B8081"></path>
    <path d="M22.7021 70.5976L23.6878 71.5805H24.7175L22.7021 69.5708V70.5976Z" fill="#2B8081"></path>
    <path d="M28.811 66.1899L22.7021 60.0981V61.1249L28.811 67.2167V68.6755L22.7021 62.5836V63.6104L28.811 69.7023V71.0045L22.7021 64.9127V65.9395L28.3589 71.5805H28.811H38.3101V66.8285H28.811V66.1899Z" fill="#2B8081"></path>
    <path d="M28.8109 57.6501H37.9522V52.8981H28.8109H28.5095L28.8109 53.1923V54.4946L27.2099 52.8981H26.1803L28.8109 55.5214V56.8237L24.8744 52.8981H23.8447L28.8109 57.8504V57.6501Z" fill="#2B8081"></path>
    <path d="M22.7021 68.2685L26.0234 71.5805H27.053L22.7021 67.2417V68.2685Z" fill="#2B8081"></path>
    <path d="M28.811 64.3743H36.8284V59.8351H28.811V59.303L22.7021 53.2174V54.2442L28.811 60.3297V61.632L22.7021 55.5464V56.5732L28.811 62.6588V63.8609L22.7021 57.769V58.7958L28.811 64.8877V64.3743Z" fill="#2B8081"></path>
    <path d="M49.04 63.6104L55.1489 69.7023V68.6755L49.04 62.5836V63.6104Z" fill="#2B8081"></path>
    <path d="M55.1489 60.3297V59.303L49.04 53.2174V54.2442L55.1489 60.3297Z" fill="#2B8081"></path>
    <path d="M49.04 65.9395L54.7031 71.5805H55.1489V71.0045L49.04 64.9127V65.9395Z" fill="#2B8081"></path>
    <path d="M49.04 70.5976L50.032 71.5805H51.0617L49.04 69.5708V70.5976Z" fill="#2B8081"></path>
    <path d="M49.04 61.1249L55.1489 67.2167V66.1899L49.04 60.0981V61.1249Z" fill="#2B8081"></path>
    <path d="M49.04 68.2685L52.3676 71.5805H53.3972L49.04 67.2417V68.2685Z" fill="#2B8081"></path>
    <path d="M55.1488 52.8981H54.8537L55.1488 53.1923V54.4946L53.5478 52.8981H52.5182L55.1488 55.5214V56.8237L51.2123 52.8981H50.1826L55.1488 57.8504V57.6501H64.0264V52.8981H55.1488Z" fill="#2B8081"></path>
    <path d="M55.1489 61.632L49.04 55.5464V56.5732L55.1489 62.6588V63.8609L49.04 57.769V58.7958L55.1489 64.8876V65.6014H62.9403V60.8494H55.1489V61.632Z" fill="#2B8081"></path>
    <path d="M126.973 42.4612C124.964 42.4612 122.672 41.8038 120.952 40.7833L118.968 45.3037C120.795 46.4369 123.871 47.1944 126.916 47.1944C132.573 47.1944 135.417 44.3583 135.417 40.9962C135.417 34.2157 125.328 36.0563 125.328 33.8525C125.328 33.2202 125.899 32.7005 127.701 32.7005C129.289 32.7005 130.985 33.145 132.786 34.0654L134.639 29.5701C132.736 28.4932 130.206 27.9673 127.757 27.9673C122.101 27.9673 119.257 30.7534 119.257 34.1656C119.257 41.0212 129.346 39.1555 129.346 41.472C129.346 42.1043 128.718 42.4675 126.973 42.4675" fill="#2B8081"></path>
    <path d="M117.744 42.073H108.621V39.6501H116.337V35.1673H108.621V33.0073H117.405V28.3117H102.575V46.7687H117.744V42.073Z" fill="#2B8081"></path>
    <path d="M49.6303 43.5569H56.5992L57.8235 46.7687H64.083L63.8821 46.3054L56.1032 28.343H50.1263L42.3474 46.3054L42.1465 46.7687H48.406L49.6303 43.5569ZM51.4698 38.6984L53.0708 34.5162L53.0896 34.56L53.1147 34.4911L53.1399 34.56L53.1587 34.5162L54.7597 38.6984L54.9041 39.0803H51.3254L51.4698 38.6984Z" fill="#2B8081"></path>
    <path d="M83.1251 35.2925C83.1251 31.0226 79.8917 28.3304 74.8063 28.3304H71.8806L72.1756 28.6184V29.9019L70.5935 28.3242H69.5764L72.1756 30.9162V32.1997L68.2893 28.3242H67.2723L72.1756 33.2139V33.1263H74.417C76.1122 33.1263 76.9221 33.9464 76.9221 35.2863C76.9221 36.6261 76.1122 37.4463 74.417 37.4463H72.1756V36.9454L66.1484 30.935V31.9492L72.1756 37.9597V39.143L66.1484 33.1325V34.1468L72.1756 40.1572V41.4407L66.1484 35.4303V36.4445L72.1756 42.455V42.1419H73.8457L76.9723 46.7687H83.5332L79.6845 41.0901C81.8757 39.9569 83.1251 37.9534 83.1251 35.2863" fill="#2B8081"></path>
    <path d="M14.9548 35.0421L18.9667 31.4671C18.8976 31.3795 18.816 31.2981 18.7469 31.2104L14.9297 35.017C14.9297 35.017 14.9422 35.0358 14.9548 35.0421Z" fill="#2B8081"></path>
    <path d="M10.8302 32.8383C11.0751 32.8383 11.3137 32.8633 11.546 32.8946L15.652 28.8C15.3883 28.6748 15.1058 28.5621 14.8233 28.4557L10.4033 32.8633C10.5414 32.8508 10.6858 32.8445 10.8302 32.8445" fill="#2B8081"></path>
    <path d="M14.4209 34.441L18.2382 30.6344C18.0435 30.4341 17.8301 30.2588 17.6229 30.0772L13.8057 33.8838C14.0191 34.0529 14.2263 34.2344 14.4209 34.441Z" fill="#2B8081"></path>
    <path d="M13.2226 33.4769L17.0712 29.639C16.8452 29.4762 16.6129 29.3134 16.368 29.1694L12.4189 33.1075C12.6952 33.2076 12.9652 33.3266 13.2226 33.4769Z" fill="#2B8081"></path>
    <path d="M13.1847 47.1068L17.7616 42.5426L17.14 41.9917L11.9541 47.1631H12.9398C13.0214 47.1506 13.103 47.1256 13.1847 47.1068Z" fill="#2B8081"></path>
    <path d="M18.9735 43.6132L18.421 43.1249L14.9365 46.5996C16.5752 45.9673 17.9376 44.9593 18.9735 43.6132Z" fill="#2B8081"></path>
    <path d="M8.60763 47.1631L15.3757 40.4139L14.955 40.0383C14.3146 40.8459 13.5989 41.447 12.7827 41.8226L7.56543 47.0254C7.76634 47.0755 7.96097 47.1256 8.16815 47.1631H8.60136H8.60763Z" fill="#2B8081"></path>
    <path d="M10.1461 42.192L5.86426 46.4619C6.1405 46.5809 6.42931 46.6873 6.71811 46.7812L11.3013 42.2108C11.1443 42.2233 10.9937 42.2358 10.8304 42.2358C10.5918 42.2358 10.3658 42.217 10.1461 42.1857" fill="#2B8081"></path>
    <path d="M16.5681 41.4783L15.9466 40.9211L9.69336 47.1631H10.8674L16.5681 41.4783Z" fill="#2B8081"></path>
    <path d="M0.0500881 38.5169C0.0500881 38.5607 0.0626448 38.592 0.0626448 38.6296C0.0814798 38.8237 0.106593 39.0115 0.137985 39.1993C0.150542 39.2932 0.169377 39.3809 0.181933 39.4748C0.181933 39.4998 0.19449 39.5186 0.19449 39.5437C0.225882 39.7127 0.263552 39.8755 0.301222 40.0383C0.320057 40.1134 0.338892 40.1885 0.357727 40.2637C0.426788 40.5141 0.502129 40.7645 0.590025 41.0024C0.602582 41.0463 0.621417 41.0838 0.640252 41.1277C0.659087 41.184 0.6842 41.2341 0.709314 41.2904C0.765819 41.4344 0.822324 41.5784 0.885107 41.7162C0.922777 41.7976 0.960447 41.8727 0.998117 41.9541C1.07346 42.1044 1.15508 42.2546 1.23669 42.4049C1.28064 42.4863 1.33087 42.5677 1.37482 42.6428C1.42504 42.7242 1.47527 42.7993 1.5255 42.8807C1.56945 42.9496 1.61339 43.0247 1.66362 43.0936C1.70757 43.1562 1.74524 43.2188 1.78919 43.2814C1.84569 43.3628 1.91475 43.4379 1.97754 43.5193C2.06544 43.632 2.14705 43.751 2.24123 43.8574C2.28518 43.9137 2.34168 43.9638 2.38563 44.0202C2.50492 44.1517 2.62421 44.2831 2.74977 44.4083C2.81884 44.4772 2.8879 44.5398 2.95696 44.6087C3.07625 44.7151 3.19554 44.8216 3.31482 44.928C3.39016 44.9906 3.4655 45.0532 3.54084 45.1158C3.57224 45.1409 3.60991 45.1659 3.6413 45.191C3.74803 45.2786 3.86104 45.36 3.97405 45.4414C4.03683 45.4852 4.09334 45.529 4.14984 45.5729C4.18751 45.5979 4.23146 45.623 4.26913 45.648C4.43865 45.7544 4.60816 45.8609 4.78396 45.961C4.8593 46.0049 4.93464 46.0424 5.00998 46.08H5.01625C5.12299 46.1363 5.22344 46.1927 5.33017 46.249V45.7544L9.13485 41.9603C8.85232 41.8602 8.58863 41.7287 8.35005 41.5722L5.33645 44.5774V43.4943L7.74105 41.0963C7.54015 40.9023 7.36435 40.6894 7.2074 40.4577L5.33645 42.3235V41.3343L6.85581 39.8191C6.73652 39.5437 6.63607 39.2557 6.56073 38.9426L5.33645 40.1635V39.0803L6.41632 38.0035C6.40377 37.8532 6.39749 37.703 6.39749 37.5464C6.39749 37.2897 6.41633 37.0393 6.44772 36.8014L5.33645 37.9096V36.6762L6.96882 35.0483C7.36435 34.2908 7.95452 33.7023 8.69536 33.3266L13.8813 28.1551C13.5674 28.0737 13.2534 27.9923 12.927 27.9297L5.33645 35.4991V34.416L11.9789 27.792C11.6211 27.7544 11.2444 27.7357 10.8677 27.7294L5.33645 33.2452V32.1621L9.76268 27.7482C9.31692 27.7732 8.87743 27.817 8.45051 27.8859L5.33645 30.9913V29.9082L7.04416 28.2052C6.44772 28.3805 5.87639 28.5934 5.33645 28.8563C5.08532 28.9753 4.84674 29.113 4.60816 29.257C4.53282 29.3009 4.45748 29.3447 4.38842 29.3948C4.19379 29.5137 4.00544 29.6452 3.82337 29.7767C3.77314 29.8143 3.71664 29.8518 3.66641 29.8894C3.44667 30.0584 3.23948 30.2337 3.03858 30.4153C2.98207 30.4717 2.91929 30.528 2.86278 30.5781C2.70583 30.7283 2.54887 30.8911 2.40447 31.0539C2.36052 31.104 2.31029 31.1541 2.26006 31.2104C2.08427 31.417 1.91475 31.6299 1.75152 31.8553C1.71385 31.9117 1.67618 31.968 1.63223 32.0306C1.50666 32.2184 1.38737 32.4063 1.27436 32.6003C1.23669 32.663 1.19902 32.7256 1.16763 32.7882C1.12996 32.857 1.09857 32.9322 1.0609 33.001C0.966726 33.1763 0.872551 33.3579 0.79721 33.5457C0.778375 33.5958 0.75954 33.6522 0.734427 33.7023C0.640252 33.9214 0.558634 34.153 0.483293 34.3847C0.45818 34.4598 0.433067 34.5287 0.414232 34.6038C0.332613 34.8856 0.257273 35.1673 0.19449 35.4616C0.188212 35.4991 0.181933 35.5304 0.175655 35.568C0.131707 35.7934 0.100315 36.0188 0.0752014 36.2504C0.0752014 36.2943 0.0626448 36.3318 0.0563664 36.3757C0.0500881 36.457 0.0375314 36.5384 0.0312531 36.6198C0.00613971 36.9329 -0.0126953 37.2459 -0.0126953 37.5652C-0.0126953 37.8532 -0.000138634 38.1287 0.0249747 38.4042C0.0249747 38.4543 0.0312531 38.4981 0.0375314 38.5419" fill="#2B8081"></path>
    <path d="M28.6168 29.8957L27.0347 28.3179H26.0176L28.6168 30.9099V29.8957Z" fill="#2B8081"></path>
    <path d="M26.8842 46.775L22.5898 42.4863V43.5005L25.8671 46.775H26.8842Z" fill="#2B8081"></path>
    <path d="M28.6163 32.1934L24.73 28.3179H23.7129L28.6163 33.2077V32.1934Z" fill="#2B8081"></path>
    <path d="M28.6171 43.9012L22.5898 37.8845V38.8988L28.6171 44.9155V43.9012Z" fill="#2B8081"></path>
    <path d="M28.6164 28.3179H28.3213L28.6164 28.6059V28.3179Z" fill="#2B8081"></path>
    <path d="M24.5801 46.775L22.5898 44.784V45.7983L23.563 46.775H24.5801Z" fill="#2B8081"></path>
    <path d="M28.6171 41.447L22.5898 35.4303V36.4445L28.6171 42.4612V41.447Z" fill="#2B8081"></path>
    <path d="M28.6171 46.775V46.199L22.5898 40.1823V41.2028L28.1776 46.775H28.6171Z" fill="#2B8081"></path>
    <path d="M34.3486 41.2028L39.9364 46.775H40.3758V46.199L34.3486 40.1885V41.2028Z" fill="#2B8081"></path>
    <path d="M34.3486 43.5005L37.6322 46.775H38.6493L34.3486 42.4863V43.5005Z" fill="#2B8081"></path>
    <path d="M34.3486 44.784V45.7983L35.3218 46.775H36.3389L34.3486 44.784Z" fill="#2B8081"></path>
    <path d="M34.3241 35.0609H28.6171V34.6477L22.5898 28.631V29.6452L28.6171 35.6619V36.9454L22.5898 30.9287V31.9492L28.6171 37.9597V39.1492L22.5898 33.1325V34.1468L28.6171 40.1635V39.8755H34.3492H35.3286L40.3764 44.9155V43.9012L36.3457 39.8755H37.7897L40.3764 42.4612V41.447L38.8068 39.8755H40.0939L40.3764 40.1635V39.8755V28.3179H34.3241V35.0609Z" fill="#2B8081"></path>
    <path d="M68.1387 46.775L66.1484 44.7903V45.7983L67.1216 46.775H68.1387Z" fill="#2B8081"></path>
    <path d="M72.1756 34.6539L66.1484 28.6435V29.6577L72.1756 35.6682V34.6539Z" fill="#2B8081"></path>
    <path d="M70.4428 46.775L66.1484 42.4863V43.5005L69.4257 46.775H70.4428Z" fill="#2B8081"></path>
    <path d="M72.1756 46.775V46.199L66.1484 40.1885V41.2028L71.7299 46.775H72.1756Z" fill="#2B8081"></path>
    <path d="M72.1756 43.9012L66.1484 37.8908V38.905L72.1756 44.9155V43.9012Z" fill="#2B8081"></path>
    <path d="M90.9169 46.775L86.3965 42.2859V43.2939L89.8998 46.775H90.9169Z" fill="#2B8081"></path>
    <path d="M92.6115 39.1617L86.4399 33.0449H87.6265L92.6115 37.9847V36.9767L88.6436 33.0449H89.9306L92.6115 35.6995V34.6915L90.9477 33.0449H92.3917L92.6115 33.264V33.0449V28.3179H86.3896V33.0449V34.009L92.6115 40.1697V39.1617Z" fill="#2B8081"></path>
    <path d="M88.6122 46.775L86.3896 44.5711V45.5791L87.5951 46.775H88.6122Z" fill="#2B8081"></path>
    <path d="M92.6115 46.775H100.798V42.048H92.6115V41.9917V41.447L86.3896 35.28V36.288L92.6115 42.455V43.8824L86.3896 37.7217V38.7297L92.6115 44.8904V46.1677L86.3896 40.0007V41.0087L92.2097 46.775H92.6115Z" fill="#2B8081"></path>
    <path d="M10.1523 52.8981H1.03613V71.568H10.146C16.3302 71.568 20.5806 68.0181 20.5806 62.233C20.5806 56.448 16.3302 52.8981 10.146 52.8981M9.88232 66.6595H7.26425V57.8003H9.88232C12.5004 57.8003 14.296 59.3718 14.296 62.2268C14.296 65.0817 12.5004 66.6532 9.88232 66.6532" fill="#2B8081"></path>
    <path d="M75.1328 52.4724C69.1119 52.4724 64.6982 56.5795 64.6982 62.233C64.6982 67.8866 69.1119 71.9937 75.1328 71.9937C81.1538 71.9937 85.5674 67.8866 85.5674 62.233C85.5674 56.5795 81.1538 52.4724 75.1328 52.4724ZM75.1328 66.9037C72.835 66.9037 70.9829 65.1444 70.9829 62.233C70.9829 59.3217 72.835 57.5624 75.1328 57.5624C77.4307 57.5624 79.2765 59.3217 79.2765 62.233C79.2765 65.1444 77.4244 66.9037 75.1328 66.9037Z" fill="#2B8081"></path>
    <path d="M196.123 52.8981H187.013V71.5868H196.123C202.307 71.5868 206.557 68.0369 206.557 62.2456C206.557 56.4543 202.307 52.9043 196.123 52.9043M195.859 66.6783H193.241V57.8129H195.859C198.471 57.8129 200.266 59.3906 200.266 62.2456C200.266 65.1005 198.471 66.6783 195.859 66.6783Z" fill="#2B8081"></path>
    <path d="M2.25985 4.4327V7.83235L7.43948 7.83861V8.97809L2.25357 8.97183V12.5217L8.23683 12.528V13.6487L1.07324 13.6424L1.0858 3.29322H8.06103V4.43896H2.25985V4.4327ZM4.94698 2.00974H3.84827L5.61248 0L6.77397 0.563478L4.95326 2.00974H4.94698Z" fill="#2B8081"></path>
    <path d="M19.5257 4.77078L18.8226 5.67861C18.0315 4.85843 16.914 4.36382 15.7839 4.36382C13.4672 4.36382 11.5962 6.17322 11.5962 8.46469C11.5962 10.7374 13.4546 12.5718 15.7776 12.5781C16.9077 12.5781 18.0127 12.1023 18.8163 11.3322L19.532 12.1523C18.5212 13.1165 17.14 13.7551 15.7148 13.7551C12.7514 13.7551 10.4033 11.4136 10.4033 8.47095C10.4033 5.55339 12.7891 3.24939 15.7713 3.25565C17.1777 3.25565 18.5463 3.83791 19.5257 4.77704" fill="#2B8081"></path>
    <path d="M31.9193 8.50226C31.9193 11.4323 29.5335 13.7676 26.5388 13.7614C23.5314 13.7614 21.1519 11.4198 21.1582 8.48348C21.1582 5.54087 23.544 3.24939 26.5513 3.25565C29.5461 3.25565 31.9193 5.56591 31.9193 8.496M22.3448 8.48348C22.3448 10.775 24.2472 12.6094 26.5388 12.6094C28.8303 12.6094 30.7138 10.7812 30.7138 8.48974C30.7138 6.19826 28.8366 4.38261 26.545 4.38261C24.2534 4.38261 22.3448 6.192 22.3448 8.48348Z" fill="#2B8081"></path>
    <path d="M40.4641 12.4904V13.6111L34.7822 13.6049L34.7948 3.29322L35.9688 3.29948L35.9563 12.4904H40.4641Z" fill="#2B8081"></path>
    <path d="M44.2872 4.44522L44.2809 7.83861L49.4668 7.84487V8.97809L44.2809 8.97183L44.2746 12.5155L50.2704 12.5217L50.2642 13.6424L43.1006 13.6362L43.1131 3.30574L50.0884 3.312V4.45148L44.2872 4.44522Z" fill="#2B8081"></path>
    <path d="M76.4388 4.80835L75.7357 5.70365C74.9446 4.896 73.827 4.41391 72.6969 4.41391C70.374 4.41391 68.5093 6.192 68.5093 8.45217C68.5093 10.6936 70.3677 12.4967 72.6907 12.4967C73.8208 12.4967 74.9258 12.0271 75.7294 11.2696L76.4451 12.0772C75.4343 13.0289 74.0468 13.655 72.6279 13.655C69.6645 13.655 67.3164 11.351 67.3164 8.45217C67.3164 5.5847 69.7022 3.312 72.6781 3.31826C74.0845 3.31826 75.4531 3.89426 76.4326 4.81461" fill="#2B8081"></path>
    <path d="M88.8324 8.53982C88.8324 11.4637 86.4466 13.7864 83.4518 13.7864C80.4445 13.7864 78.065 11.4511 78.0713 8.53356C78.0713 5.59722 80.4571 3.31826 83.4644 3.31826C86.4592 3.31826 88.8324 5.62226 88.8324 8.53982ZM79.2579 8.5273C79.2579 10.8125 81.1602 12.6344 83.4518 12.6407C85.7434 12.647 87.6207 10.825 87.6269 8.53982C87.6269 6.25461 85.7497 4.44522 83.4644 4.44522C81.1728 4.44522 79.2642 6.24835 79.2579 8.53356" fill="#2B8081"></path>
    <path d="M97.3835 12.5217V13.6424L91.6953 13.6362L91.7079 3.35583L92.8819 3.36209L92.8756 12.5217H97.3835Z" fill="#2B8081"></path>
    <path d="M105.702 12.528V13.6424L100.021 13.6362L100.027 3.36835H101.201L101.195 12.5217L105.702 12.528Z" fill="#2B8081"></path>
    <path d="M109.52 4.50783V7.87618H114.699V9.00313H109.513V12.5155L115.497 12.5217V13.6362L108.333 13.6299L108.346 3.38087H115.321V4.51409H109.52V4.50783ZM111.522 2.10991L109.689 0.657392L110.863 0.118958L112.621 2.10991H111.522Z" fill="#2B8081"></path>
    <path d="M126.835 8.64V12.359C125.818 13.1603 124.393 13.705 123.012 13.705C120.029 13.705 117.656 11.401 117.656 8.51478C117.656 5.62852 120.055 3.36209 123.081 3.36835C124.506 3.36835 125.887 3.91304 126.867 4.77704L126.189 5.65357C125.354 4.90852 124.223 4.464 123.074 4.464C120.726 4.464 118.843 6.26087 118.843 8.51478C118.843 10.7875 120.733 12.5906 123.081 12.5906C124.004 12.5906 124.989 12.2713 125.78 11.7266V8.63374H126.829L126.835 8.64Z" fill="#2B8081"></path>
    <path d="M131.588 4.53287V7.89495L136.767 7.90122V9.02817L131.588 9.02191L131.581 12.5405H137.571V13.655L130.407 13.6487L130.414 3.39965L137.389 3.40591V4.53287H131.588Z" fill="#2B8081"></path>
    <path d="M6.81178 27.2661V28.3805L1.12988 28.3743L1.14244 18.1252L2.31649 18.1315L2.31021 27.2661H6.81178Z" fill="#2B8081"></path>
    <path d="M13.0899 28.3868H11.9347V24.9183L7.9668 18.1315L9.1848 18.1377L12.5123 23.4845L15.8022 18.144H17.0076L13.0962 24.8744L13.0899 28.3868Z" fill="#2B8081"></path>
    <path d="M26.9408 19.6153L26.2376 20.5106C25.4465 19.703 24.329 19.2209 23.1989 19.2209C20.8822 19.2209 19.0112 20.999 19.0112 23.2591C19.0112 25.5005 20.8696 27.3037 23.1926 27.3037C24.3227 27.3037 25.4277 26.8403 26.2313 26.0765L26.9471 26.8842C25.9363 27.8358 24.555 28.4619 23.1298 28.4619C20.1665 28.4619 17.8184 26.1579 17.8184 23.2591C17.8184 20.3917 20.2041 18.119 23.1863 18.1252C24.5927 18.1252 25.9614 18.7012 26.9408 19.6216" fill="#2B8081"></path>
    <path d="M30.9708 19.2897V22.6581H36.1504V23.785H30.9645V27.2974H36.9478V28.4118L29.7842 28.4056L29.7967 18.1565H36.772V19.2897H30.9708ZM33.6579 16.8918H32.5592L34.3234 14.9009L35.4849 15.4581L33.6642 16.8918H33.6579Z" fill="#2B8081"></path>
    <path d="M41.2608 19.296L41.2545 22.6643L46.4405 22.6706L46.4342 23.7976L41.2545 23.7913L41.2483 27.3099L47.2378 27.3162V28.4243L40.0742 28.4181L40.0868 18.169L47.0557 18.1753V19.3023L41.2608 19.296Z" fill="#2B8081"></path>
    <path d="M71.5735 19.1082L71.0712 20.2101C70.1483 19.5903 69.0621 19.3398 68.2397 19.3398C66.915 19.3398 66.0485 19.8344 66.0485 20.6984C66.0485 23.3343 71.8309 21.9631 71.8121 25.6821C71.8121 27.3976 70.299 28.4932 68.0953 28.487C66.5948 28.487 65.1319 27.8421 64.165 26.9155L64.6924 25.8637C65.6467 26.7903 66.9526 27.3162 68.1141 27.3162C69.5958 27.3162 70.525 26.7151 70.525 25.7384C70.5438 23.0463 64.7552 24.4737 64.7615 20.7986C64.7615 19.1896 66.1867 18.1503 68.315 18.1503C69.5016 18.1503 70.7196 18.5322 71.5735 19.1019" fill="#2B8081"></path>
    <path d="M83.3515 24.2484C83.3515 26.9155 81.7317 28.5245 79.0445 28.5183C76.3449 28.5183 74.7125 26.903 74.7188 24.2358V18.2066H75.8991V24.2358C75.8928 26.2268 77.092 27.385 79.0445 27.385C80.9971 27.385 82.1712 26.233 82.1774 24.2421V18.2129H83.3578V24.2421L83.3515 24.2484Z" fill="#2B8081"></path>
    <path d="M90.8284 18.2254C93.3648 18.2254 94.834 19.4901 94.834 21.6689C94.834 23.9353 93.3586 25.2376 90.8221 25.2376H88.135V28.4682H86.9609L86.9735 18.2191H90.8347L90.8284 18.2254ZM88.135 24.1106H90.7782C92.6303 24.1106 93.6976 23.2967 93.7039 21.7002C93.7039 20.1475 92.6366 19.3586 90.7845 19.3523H88.1413V24.1106H88.135Z" fill="#2B8081"></path>
    <path d="M57.1016 13.6424L60.291 3.40591H61.3018L58.0998 13.6424H57.1016Z" fill="#2B8081"></path>
    <path d="M53.7988 28.3367L56.9819 18.1002L57.999 18.1064L54.7971 28.343L53.7988 28.3367Z" fill="#2B8081"></path>
  </g>
  <defs>
    <clipPath id="clip0_546_1061">
      <rect width="206.557" height="72" fill="white"></rect>
    </clipPath>
  </defs>
</svg>
